<?xml version="1.0" encoding="UTF-8"?>
<svg id="Layer_1" data-name="Layer 1" xmlns="http://www.w3.org/2000/svg" xmlns:xlink="http://www.w3.org/1999/xlink" viewBox="0 0 227.76 248.46">
  <defs>
    <style>
      .cls-1 {
        fill: url(#linear-gradient-2);
      }

      .cls-2 {
        clip-path: url(#clippath);
      }

      .cls-3 {
        fill: none;
      }

      .cls-4 {
        fill: url(#linear-gradient);
      }
    </style>
    <clipPath id="clippath">
      <rect class="cls-3" width="227.76" height="248.46"/>
    </clipPath>
    <linearGradient id="linear-gradient" x1="147.2" y1="103.54" x2="251.5" y2="-201.73" gradientTransform="translate(-50 110.46) scale(1 -1)" gradientUnits="userSpaceOnUse">
      <stop offset="0" stop-color="#fff"/>
      <stop offset="1" stop-color="#cdd0d1"/>
    </linearGradient>
    <linearGradient id="linear-gradient-2" x1="-62.4" y1="533.56" x2="781.96" y2="-1937.67" xlink:href="#linear-gradient"/>
  </defs>
  <g class="cls-2">
    <g>
      <path class="cls-4" d="m113.91,111.68c-30.79,0-55.8-25.03-55.8-55.84S83.13,0,113.91,0s55.8,25.03,55.8,55.84-25.02,55.84-55.8,55.84Zm0-97.25c-22.85,0-41.38,18.61-41.38,41.41s18.6,41.41,41.38,41.41,41.38-18.61,41.38-41.41-18.6-41.41-41.38-41.41Z"/>
      <path class="cls-1" d="m226.75,234.1c-7.14-56.06-54.94-99.56-112.83-99.56S8.15,178.05,1.01,234.1c-.58,4.69-1.01,9.52-1.01,14.36h227.76c0-4.91-.43-9.67-1.01-14.36Zm-211.17,0c6.99-48.12,48.38-85.2,98.34-85.2s91.35,37.08,98.34,85.2H15.57Z"/>
    </g>
  </g>
</svg>